<svg xmlns="http://www.w3.org/2000/svg" viewBox="0 0 400 300" role="img" aria-label="業務自動化・AI導入支援">
  <defs>
    <linearGradient id="bg-ai" x1="0" y1="0" x2="1" y2="1">
      <stop offset="0" stop-color="#7EC5CF"/>
      <stop offset="1" stop-color="#3BA5B5"/>
    </linearGradient>
  </defs>
  <rect width="400" height="300" fill="url(#bg-ai)"/>
  <circle cx="96" cy="212" r="16" fill="#FFFFFF" opacity="0.16"/>
  <circle cx="316" cy="88" r="20" fill="#FFFFFF" opacity="0.16"/>
  <!-- アンテナ -->
  <rect x="196" y="86" width="8" height="30" rx="4" fill="#175E6B"/>
  <circle cx="200" cy="78" r="10" fill="#F5B961"/>
  <!-- 耳 -->
  <rect x="112" y="148" width="18" height="40" rx="9" fill="#175E6B"/>
  <rect x="270" y="148" width="18" height="40" rx="9" fill="#175E6B"/>
  <!-- 頭 -->
  <rect x="130" y="112" width="140" height="106" rx="28" fill="#FFFFFF"/>
  <!-- 目 -->
  <circle cx="172" cy="158" r="12" fill="#175E6B"/>
  <circle cx="228" cy="158" r="12" fill="#175E6B"/>
  <!-- 口 -->
  <path d="M178 188 Q200 202 222 188" fill="none" stroke="#175E6B" stroke-width="8" stroke-linecap="round"/>
  <!-- きらめき -->
  <path d="M0 -16 C2.5 -5 5 -2.5 16 0 C5 2.5 2.5 5 0 16 C-2.5 5 -5 2.5 -16 0 C-5 -2.5 -2.5 -5 0 -16 Z" transform="translate(118 96)" fill="#F5B961"/>
  <path d="M0 -11 C1.8 -3.5 3.5 -1.8 11 0 C3.5 1.8 1.8 3.5 0 11 C-1.8 3.5 -3.5 1.8 -11 0 C-3.5 -1.8 -1.8 -3.5 0 -11 Z" transform="translate(288 118)" fill="#FFFFFF"/>
  <path d="M0 -11 C1.8 -3.5 3.5 -1.8 11 0 C3.5 1.8 1.8 3.5 0 11 C-1.8 3.5 -3.5 1.8 -11 0 C-3.5 -1.8 -1.8 -3.5 0 -11 Z" transform="translate(104 148)" fill="#FFFFFF"/>
  <!-- 自動化サイクルのバッジ -->
  <g transform="translate(276 212)">
    <circle r="27" fill="#F5B961"/>
    <g fill="none" stroke="#FFFFFF" stroke-width="6" stroke-linecap="round">
      <path d="M-11 -7 A 13 13 0 0 1 11 -7"/>
      <path d="M11 7 A 13 13 0 0 1 -11 7"/>
    </g>
    <path d="M11 -13 L21 -7 L11 0 Z" fill="#FFFFFF"/>
    <path d="M-11 13 L-21 7 L-11 0 Z" fill="#FFFFFF"/>
  </g>
</svg>
